<svg width="225" height="44" viewBox="0 0 225 44" fill="none" xmlns="http://www.w3.org/2000/svg">
<g>
<path d="M60.7342 13.1267H64.4622V24.5776C64.4622 25.8633 64.1551 26.9883 63.5409 27.9526C62.9325 28.9169 62.0801 29.6688 60.9838 30.2083C59.8875 30.7421 58.6104 31.009 57.1525 31.009C55.6889 31.009 54.4089 30.7421 53.3126 30.2083C52.2163 29.6688 51.3639 28.9169 50.7555 27.9526C50.1471 26.9883 49.8429 25.8633 49.8429 24.5776V13.1267H53.5709V24.259C53.5709 24.9306 53.7173 25.5275 54.01 26.0498C54.3085 26.5722 54.7275 26.9826 55.267 27.281C55.8065 27.5795 56.4351 27.7287 57.1525 27.7287C57.8757 27.7287 58.5042 27.5795 59.038 27.281C59.5776 26.9826 59.9937 26.5722 60.2865 26.0498C60.5849 25.5275 60.7342 24.9306 60.7342 24.259V13.1267Z" fill="white"/>
<path d="M67.5634 30.9832C66.9951 30.9832 66.5072 30.7823 66.0997 30.3805C65.6979 29.973 65.497 29.4851 65.497 28.9169C65.497 28.3544 65.6979 27.8722 66.0997 27.4704C66.5072 27.0687 66.9951 26.8678 67.5634 26.8678C68.1144 26.8678 68.5965 27.0687 69.0098 27.4704C69.4231 27.8722 69.6297 28.3544 69.6297 28.9169C69.6297 29.2957 69.5321 29.643 69.337 29.9586C69.1476 30.2686 68.8979 30.5183 68.5879 30.7077C68.278 30.8914 67.9365 30.9832 67.5634 30.9832Z" fill="white"/>
<path d="M81.0629 18.1978C80.9941 17.5033 80.6985 16.9637 80.1761 16.5792C79.6538 16.1946 78.945 16.0023 78.0495 16.0023C77.4411 16.0023 76.9274 16.0884 76.5084 16.2606C76.0894 16.4271 75.768 16.6595 75.5441 16.958C75.326 17.2565 75.217 17.5951 75.217 17.9739C75.2055 18.2896 75.2715 18.5651 75.415 18.8005C75.5642 19.0358 75.768 19.2396 76.0263 19.4118C76.2846 19.5782 76.583 19.7246 76.9217 19.8509C77.2603 19.9714 77.6219 20.0747 78.0065 20.1608L79.5907 20.5396C80.3598 20.7118 81.0658 20.9414 81.7087 21.2284C82.3515 21.5154 82.9083 21.8684 83.3789 22.2874C83.8496 22.7064 84.2141 23.2 84.4724 23.7683C84.7364 24.3365 84.8713 24.988 84.877 25.7227C84.8713 26.8018 84.5958 27.7373 84.0505 28.5294C83.511 29.3158 82.7304 29.9271 81.7087 30.3633C80.6927 30.7938 79.4673 31.009 78.0323 31.009C76.6089 31.009 75.3691 30.7909 74.3129 30.3547C73.2626 29.9185 72.4418 29.2727 71.8506 28.4175C71.2651 27.5565 70.958 26.4918 70.9293 25.2233H74.5368C74.577 25.8145 74.7463 26.3081 75.0448 26.7042C75.349 27.0945 75.7536 27.3901 76.2587 27.591C76.7696 27.7861 77.3464 27.8837 77.9893 27.8837C78.6207 27.8837 79.1688 27.7919 79.6337 27.6082C80.1044 27.4245 80.4689 27.1691 80.7272 26.8419C80.9855 26.5148 81.1146 26.1388 81.1146 25.7141C81.1146 25.318 80.9969 24.9851 80.7616 24.7153C80.532 24.4456 80.1934 24.216 79.7457 24.0266C79.3037 23.8372 78.7613 23.665 78.1184 23.51L76.1985 23.0278C74.7119 22.6662 73.5381 22.1009 72.6771 21.3317C71.8161 20.5626 71.3885 19.5266 71.3943 18.2236C71.3885 17.156 71.6726 16.2233 72.2466 15.4255C72.8263 14.6276 73.6213 14.0049 74.6315 13.5572C75.6417 13.1095 76.7897 12.8856 78.0754 12.8856C79.3841 12.8856 80.5263 13.1095 81.502 13.5572C82.4835 14.0049 83.2469 14.6276 83.7922 15.4255C84.3375 16.2233 84.6187 17.1474 84.636 18.1978H81.0629Z" fill="white"/>
<path d="M88.2473 30.9832C87.6791 30.9832 87.1912 30.7823 86.7837 30.3805C86.3819 29.973 86.181 29.4851 86.181 28.9169C86.181 28.3544 86.3819 27.8722 86.7837 27.4704C87.1912 27.0687 87.6791 26.8678 88.2473 26.8678C88.7983 26.8678 89.2805 27.0687 89.6937 27.4704C90.107 27.8722 90.3136 28.3544 90.3136 28.9169C90.3136 29.2957 90.2161 29.643 90.0209 29.9586C89.8315 30.2686 89.5818 30.5183 89.2719 30.7077C88.9619 30.8914 88.6204 30.9832 88.2473 30.9832Z" fill="white"/>
<path d="M107.444 18.8263C107.323 18.4073 107.154 18.0371 106.936 17.7157C106.718 17.3885 106.451 17.113 106.135 16.8891C105.825 16.6595 105.469 16.4845 105.068 16.3639C104.672 16.2434 104.232 16.1831 103.75 16.1831C102.849 16.1831 102.057 16.407 101.374 16.8547C100.697 17.3024 100.169 17.9539 99.7899 18.8091C99.4111 19.6586 99.2216 20.6975 99.2216 21.9258C99.2216 23.1541 99.4082 24.1988 99.7813 25.0597C100.154 25.9207 100.682 26.5779 101.365 27.0313C102.048 27.4791 102.855 27.7029 103.785 27.7029C104.629 27.7029 105.349 27.5537 105.946 27.2552C106.548 26.951 107.008 26.5234 107.323 25.9724C107.645 25.4213 107.806 24.7699 107.806 24.018L108.563 24.1299H104.017V21.3231H111.396V23.5444C111.396 25.0942 111.069 26.4258 110.414 27.5393C109.76 28.6471 108.859 29.5023 107.711 30.105C106.563 30.7019 105.248 31.0004 103.768 31.0004C102.115 31.0004 100.662 30.6359 99.4111 29.907C98.1598 29.1723 97.184 28.1305 96.4838 26.7817C95.7892 25.4271 95.442 23.8199 95.442 21.9602C95.442 20.531 95.6486 19.2568 96.0619 18.1375C96.4809 17.0125 97.0664 16.0597 97.8183 15.2791C98.5702 14.4985 99.4455 13.9044 100.444 13.4969C101.443 13.0894 102.525 12.8856 103.69 12.8856C104.689 12.8856 105.619 13.032 106.48 13.3247C107.341 13.6117 108.104 14.0192 108.77 14.5473C109.441 15.0754 109.99 15.7039 110.414 16.4328C110.839 17.156 111.112 17.9539 111.232 18.8263H107.444Z" fill="white"/>
<path d="M112.984 30.7593V13.1267H116.712V20.4019H124.28V13.1267H127.999V30.7593H124.28V23.4755H116.712V30.7593H112.984Z" fill="white"/>
<path d="M141.552 18.8263C141.432 18.4073 141.263 18.0371 141.045 17.7157C140.826 17.3885 140.56 17.113 140.244 16.8891C139.934 16.6595 139.578 16.4845 139.176 16.3639C138.78 16.2434 138.341 16.1831 137.859 16.1831C136.958 16.1831 136.166 16.407 135.483 16.8547C134.805 17.3024 134.277 17.9539 133.898 18.8091C133.52 19.6586 133.33 20.6975 133.33 21.9258C133.33 23.1541 133.517 24.1988 133.89 25.0597C134.263 25.9207 134.791 26.5779 135.474 27.0313C136.157 27.4791 136.964 27.7029 137.893 27.7029C138.737 27.7029 139.457 27.5537 140.054 27.2552C140.657 26.951 141.116 26.5234 141.432 25.9724C141.753 25.4213 141.914 24.7699 141.914 24.018L142.672 24.1299H138.126V21.3231H145.504V23.5444C145.504 25.0942 145.177 26.4258 144.523 27.5393C143.869 28.6471 142.967 29.5023 141.819 30.105C140.671 30.7019 139.357 31.0004 137.876 31.0004C136.223 31.0004 134.771 30.6359 133.52 29.907C132.268 29.1723 131.293 28.1305 130.592 26.7817C129.898 25.4271 129.551 23.8199 129.551 21.9602C129.551 20.531 129.757 19.2568 130.17 18.1375C130.589 17.0125 131.175 16.0597 131.927 15.2791C132.679 14.4985 133.554 13.9044 134.553 13.4969C135.552 13.0894 136.633 12.8856 137.799 12.8856C138.797 12.8856 139.727 13.032 140.588 13.3247C141.449 13.6117 142.213 14.0192 142.878 14.5473C143.55 15.0754 144.098 15.7039 144.523 16.4328C144.948 17.156 145.22 17.9539 145.341 18.8263H141.552Z" fill="white"/>
<path d="M167.049 19.2998H163.278C163.209 18.812 163.069 18.3786 162.856 17.9998C162.644 17.6152 162.371 17.288 162.038 17.0183C161.706 16.7485 161.321 16.5419 160.885 16.3984C160.454 16.2549 159.986 16.1831 159.481 16.1831C158.569 16.1831 157.774 16.4099 157.096 16.8633C156.419 17.311 155.894 17.9653 155.521 18.8263C155.148 19.6815 154.961 20.7204 154.961 21.943C154.961 23.2 155.148 24.2562 155.521 25.1114C155.9 25.9666 156.428 26.6123 157.105 27.0486C157.782 27.4848 158.566 27.7029 159.455 27.7029C159.955 27.7029 160.417 27.6369 160.842 27.5049C161.272 27.3729 161.654 27.1806 161.987 26.928C162.32 26.6697 162.595 26.3569 162.813 25.9896C163.037 25.6222 163.192 25.2032 163.278 24.7326L167.049 24.7498C166.952 25.5591 166.708 26.3397 166.317 27.0916C165.933 27.8378 165.413 28.5065 164.759 29.0977C164.11 29.6831 163.336 30.1481 162.434 30.4924C161.539 30.8311 160.526 31.0004 159.395 31.0004C157.823 31.0004 156.416 30.6445 155.176 29.9328C153.942 29.2211 152.967 28.1908 152.249 26.8419C151.537 25.4931 151.182 23.8601 151.182 21.943C151.182 20.0202 151.543 18.3843 152.266 17.0355C152.99 15.6866 153.971 14.6592 155.211 13.9532C156.451 13.2415 157.845 12.8856 159.395 12.8856C160.417 12.8856 161.364 13.0291 162.236 13.3161C163.115 13.6031 163.892 14.0221 164.57 14.5731C165.247 15.1184 165.798 15.7871 166.223 16.5792C166.653 17.3713 166.929 18.2782 167.049 19.2998Z" fill="white"/>
<path d="M174.468 31.0176C173.108 31.0176 171.937 30.7421 170.955 30.1911C169.98 29.6343 169.228 28.848 168.7 27.832C168.172 26.8104 167.908 25.6021 167.908 24.2074C167.908 22.847 168.172 21.6532 168.7 20.6257C169.228 19.5983 169.971 18.7976 170.93 18.2236C171.894 17.6497 173.025 17.3627 174.322 17.3627C175.194 17.3627 176.006 17.5033 176.758 17.7845C177.516 18.06 178.176 18.4762 178.739 19.0329C179.307 19.5897 179.749 20.29 180.065 21.1337C180.38 21.9717 180.538 22.9532 180.538 24.0782V25.0856H169.371V22.8126H177.086C177.086 22.2845 176.971 21.8167 176.741 21.4092C176.512 21.0017 176.193 20.6831 175.786 20.4535C175.384 20.2182 174.916 20.1005 174.382 20.1005C173.825 20.1005 173.332 20.2297 172.901 20.488C172.477 20.7405 172.144 21.082 171.903 21.5125C171.661 21.9373 171.538 22.4108 171.532 22.9331V25.0942C171.532 25.7485 171.653 26.3139 171.894 26.7903C172.141 27.2667 172.488 27.634 172.936 27.8923C173.383 28.1506 173.914 28.2798 174.528 28.2798C174.936 28.2798 175.309 28.2224 175.648 28.1076C175.986 27.9928 176.276 27.8206 176.517 27.591C176.758 27.3614 176.942 27.0801 177.068 26.7472L180.461 26.9711C180.288 27.7861 179.935 28.4979 179.402 29.1063C178.874 29.709 178.19 30.1796 177.352 30.5183C176.52 30.8512 175.559 31.0176 174.468 31.0176Z" fill="white"/>
<path d="M185.387 23.1139V30.7593H181.719V17.5349H185.215V19.8681H185.37C185.663 19.0989 186.153 18.4905 186.842 18.0428C187.531 17.5894 188.366 17.3627 189.348 17.3627C190.266 17.3627 191.067 17.5636 191.75 17.9653C192.433 18.3671 192.964 18.9411 193.342 19.6873C193.721 20.4277 193.911 21.3116 193.911 22.3391V30.7593H190.243V22.9934C190.249 22.1841 190.042 21.5527 189.623 21.0993C189.204 20.6401 188.627 20.4105 187.892 20.4105C187.399 20.4105 186.963 20.5167 186.584 20.7291C186.211 20.9414 185.918 21.2514 185.706 21.6589C185.499 22.0607 185.393 22.5457 185.387 23.1139Z" fill="white"/>
<path d="M202.623 17.5349V20.29H194.659V17.5349H202.623ZM196.467 14.3665H200.135V26.6956C200.135 27.0342 200.187 27.2982 200.29 27.4877C200.393 27.6713 200.537 27.8005 200.72 27.8751C200.91 27.9497 201.128 27.987 201.375 27.987C201.547 27.987 201.719 27.9727 201.891 27.944C202.064 27.9095 202.196 27.8837 202.287 27.8665L202.864 30.5958C202.681 30.6532 202.422 30.7192 202.089 30.7938C201.757 30.8741 201.352 30.9229 200.875 30.9401C199.992 30.9746 199.217 30.8569 198.551 30.5872C197.891 30.3174 197.377 29.8984 197.01 29.3301C196.642 28.7619 196.462 28.0444 196.467 27.1777V14.3665Z" fill="white"/>
<path d="M209.685 31.0176C208.325 31.0176 207.154 30.7421 206.172 30.1911C205.196 29.6343 204.444 28.848 203.916 27.832C203.388 26.8104 203.124 25.6021 203.124 24.2074C203.124 22.847 203.388 21.6532 203.916 20.6257C204.444 19.5983 205.188 18.7976 206.146 18.2236C207.111 17.6497 208.241 17.3627 209.539 17.3627C210.411 17.3627 211.223 17.5033 211.975 17.7845C212.733 18.06 213.393 18.4762 213.955 19.0329C214.524 19.5897 214.966 20.29 215.281 21.1337C215.597 21.9717 215.755 22.9532 215.755 24.0782V25.0856H204.588V22.8126H212.302C212.302 22.2845 212.187 21.8167 211.958 21.4092C211.728 21.0017 211.41 20.6831 211.002 20.4535C210.6 20.2182 210.133 20.1005 209.599 20.1005C209.042 20.1005 208.548 20.2297 208.118 20.488C207.693 20.7405 207.36 21.082 207.119 21.5125C206.878 21.9373 206.755 22.4108 206.749 22.9331V25.0942C206.749 25.7485 206.87 26.3139 207.111 26.7903C207.357 27.2667 207.705 27.634 208.152 27.8923C208.6 28.1506 209.131 28.2798 209.745 28.2798C210.153 28.2798 210.526 28.2224 210.864 28.1076C211.203 27.9928 211.493 27.8206 211.734 27.591C211.975 27.3614 212.159 27.0801 212.285 26.7472L215.677 26.9711C215.505 27.7861 215.152 28.4979 214.618 29.1063C214.09 29.709 213.407 30.1796 212.569 30.5183C211.737 30.8512 210.775 31.0176 209.685 31.0176Z" fill="white"/>
<path d="M216.936 30.7593V17.5349H220.492V19.8423H220.63C220.871 19.0215 221.275 18.4016 221.844 17.9826C222.412 17.5578 223.066 17.3454 223.807 17.3454C223.99 17.3454 224.188 17.3569 224.401 17.3799C224.613 17.4028 224.799 17.4344 224.96 17.4746V20.7291C224.788 20.6774 224.55 20.6315 224.246 20.5913C223.941 20.5511 223.663 20.531 223.41 20.531C222.871 20.531 222.389 20.6487 221.964 20.884C221.545 21.1136 221.212 21.435 220.965 21.8483C220.724 22.2616 220.604 22.738 220.604 23.2775V30.7593H216.936Z" fill="white"/>
<path d="M11.4074 22C11.4074 16.1499 16.1499 11.4074 22 11.4074V0C9.84973 0 0 9.84974 0 22C0 34.1503 9.84973 44 22 44V32.5722C27.8501 32.5722 32.5926 27.8298 32.5926 21.9796C32.5926 16.1295 27.8501 11.387 22 11.387V32.5926C16.1499 32.5926 11.4074 27.8501 11.4074 22Z" fill="#0098D7"/>
</g>
</svg>
