<svg width="512" height="512" viewBox="0 0 512 512" fill="none" xmlns="http://www.w3.org/2000/svg">
<path fill-rule="evenodd" clip-rule="evenodd" d="M256 416C344.366 416 416 344.366 416 256C416 167.634 344.366 96 256 96C167.634 96 96 167.634 96 256C96 344.366 167.634 416 256 416ZM377.345 283.723C379.373 274.808 380.444 265.529 380.444 256C380.444 200.837 344.553 154.057 294.848 137.739H286.259C277.937 137.739 270.729 143.512 268.91 151.633L259.738 192.598C257.651 201.92 263.303 211.225 272.538 213.669L309.394 223.423C313.694 224.561 317.411 227.27 319.811 231.014L342.574 266.515C343.596 268.108 344.864 269.527 346.333 270.72L359.19 281.159C364.769 285.69 371.675 286.139 377.345 283.723ZM219.136 374.894C168.405 359.182 131.556 311.894 131.556 256C131.556 246.434 132.635 237.12 134.678 228.174H188.061C192.06 228.174 195.941 229.522 199.079 232L240.143 264.43C245.572 268.717 248.02 275.763 246.421 282.493L240.103 309.076C239.741 310.6 239.179 312.068 238.432 313.444L223.37 341.204C221.957 343.807 221.217 346.721 221.217 349.682V366.465C221.217 369.597 220.453 372.442 219.136 374.894Z" fill="#0B3D91"/>
<circle cx="426" cy="83" r="30" fill="#FC3D21"/>
<circle cx="84" cy="84" r="40" fill="#FC3D21"/>
<circle cx="426" cy="426" r="40" fill="#FC3D21"/>
<circle cx="84" cy="428" r="30" fill="#FC3D21"/>
</svg>
