<svg xmlns="http://www.w3.org/2000/svg" width="512" height="512" fill="none">
<style>
    g {
      fill: #082A64;
    }
    @media (prefers-color-scheme: dark) {
      g {
        fill: #fff;
      }
    }
  </style>

  <g>
    <path fill-rule="evenodd" d="M252 432c99.411 0 180-80.589 180-180S351.411 72 252 72 72 152.589 72 252s80.589 180 180 180Zm136.513-148.812A140.439 140.439 0 0 0 392 252c0-62.058-40.378-114.686-96.296-133.043h-9.663a20 20 0 0 0-19.517 15.63l-10.319 46.086c-2.348 10.487 4.011 20.955 14.4 23.704l41.464 10.974a20 20 0 0 1 11.719 8.539l25.608 39.939a20.014 20.014 0 0 0 4.229 4.731l14.463 11.744c6.278 5.098 14.046 5.602 20.425 2.884ZM210.528 385.755C153.456 368.079 112 314.881 112 252c0-10.762 1.214-21.24 3.513-31.304h60.056c4.498 0 8.865 1.516 12.395 4.304l46.197 36.484a20 20 0 0 1 7.063 20.32l-7.108 29.907a20.04 20.04 0 0 1-1.88 4.914l-16.945 31.229a19.998 19.998 0 0 0-2.421 9.539v18.88c0 3.524-.861 6.725-2.342 9.482Z" clip-rule="evenodd"/>
    <circle cx="377" cy="30" r="30"/>
    <circle cx="486" cy="153" r="26"/>
    <circle cx="381" cy="486" r="26"/>
    <circle cx="120" cy="478" r="26"/>
    <circle cx="33" cy="371" r="33"/>
    <circle cx="26" cy="133" r="26"/>
    <circle cx="120" cy="40" r="40"/>
    <circle cx="472" cy="404" r="40"/>
  </g>
</svg> 