<svg width="36" height="36" viewBox="0 0 36 36" fill="none" xmlns="http://www.w3.org/2000/svg">
<path d="M16.6593 32.6771C24.7582 32.6771 31.3236 26.1117 31.3236 18.0129C31.3236 9.91404 24.7582 3.34863 16.6593 3.34863C8.56047 3.34863 1.99506 9.91404 1.99506 18.0129C1.99506 26.1117 8.56047 32.6771 16.6593 32.6771Z" fill="#0C448C"/>
<path d="M15.7935 6.32977C15.8843 6.32977 15.9579 6.25617 15.9579 6.16537C15.9579 6.07458 15.8843 6.00098 15.7935 6.00098C15.7027 6.00098 15.6291 6.07458 15.6291 6.16537C15.6291 6.25617 15.7027 6.32977 15.7935 6.32977Z" fill="white"/>
<path d="M17.4813 6.54901C17.5721 6.54901 17.6457 6.47541 17.6457 6.38461C17.6457 6.29382 17.5721 6.22021 17.4813 6.22021C17.3905 6.22021 17.3169 6.29382 17.3169 6.38461C17.3169 6.47541 17.3905 6.54901 17.4813 6.54901Z" fill="white"/>
<path d="M19.6952 9.52997C19.786 9.52997 19.8596 9.45636 19.8596 9.36557C19.8596 9.27478 19.786 9.20117 19.6952 9.20117C19.6044 9.20117 19.5308 9.27478 19.5308 9.36557C19.5308 9.45636 19.6044 9.52997 19.6952 9.52997Z" fill="white"/>
<path d="M7.55167 24.8737C7.64246 24.8737 7.71606 24.8001 7.71606 24.7093C7.71606 24.6185 7.64246 24.5449 7.55167 24.5449C7.46087 24.5449 7.38727 24.6185 7.38727 24.7093C7.38727 24.8001 7.46087 24.8737 7.55167 24.8737Z" fill="white"/>
<path d="M7.97909 26.1891C8.06989 26.1891 8.14349 26.1155 8.14349 26.0247C8.14349 25.934 8.06989 25.8604 7.97909 25.8604C7.8883 25.8604 7.8147 25.934 7.8147 26.0247C7.8147 26.1155 7.8883 26.1891 7.97909 26.1891Z" fill="white"/>
<path d="M5.94062 25.0299C6.00862 25.0299 6.06374 24.9748 6.06374 24.9068C6.06374 24.8388 6.00862 24.7837 5.94062 24.7837C5.87263 24.7837 5.8175 24.8388 5.8175 24.9068C5.8175 24.9748 5.87263 25.0299 5.94062 25.0299Z" fill="white"/>
<path d="M12.6261 27.6137C12.6943 27.6137 12.7496 27.5584 12.7496 27.4902C12.7496 27.422 12.6943 27.3667 12.6261 27.3667C12.5579 27.3667 12.5026 27.422 12.5026 27.4902C12.5026 27.5584 12.5579 27.6137 12.6261 27.6137Z" fill="white"/>
<path d="M23.1117 25.4352C23.1797 25.4352 23.2348 25.3801 23.2348 25.3121C23.2348 25.2441 23.1797 25.189 23.1117 25.189C23.0437 25.189 22.9886 25.2441 22.9886 25.3121C22.9886 25.3801 23.0437 25.4352 23.1117 25.4352Z" fill="white"/>
<path d="M26.1589 22.1259C26.2271 22.1259 26.2824 22.0706 26.2824 22.0024C26.2824 21.9342 26.2271 21.8789 26.1589 21.8789C26.0907 21.8789 26.0355 21.9342 26.0355 22.0024C26.0355 22.0706 26.0907 22.1259 26.1589 22.1259Z" fill="white"/>
<path d="M11.2232 10.4503C11.2912 10.4503 11.3463 10.3952 11.3463 10.3272C11.3463 10.2592 11.2912 10.2041 11.2232 10.2041C11.1552 10.2041 11.1001 10.2592 11.1001 10.3272C11.1001 10.3952 11.1552 10.4503 11.2232 10.4503Z" fill="white"/>
<path d="M14.5769 7.98744C14.6449 7.98744 14.7 7.93232 14.7 7.86433C14.7 7.79633 14.6449 7.74121 14.5769 7.74121C14.5089 7.74121 14.4538 7.79633 14.4538 7.86433C14.4538 7.93232 14.5089 7.98744 14.5769 7.98744Z" fill="white"/>
<path d="M14.2127 7.74623C14.2807 7.74623 14.3358 7.69111 14.3358 7.62312C14.3358 7.55512 14.2807 7.5 14.2127 7.5C14.1447 7.5 14.0896 7.55512 14.0896 7.62312C14.0896 7.69111 14.1447 7.74623 14.2127 7.74623Z" fill="white"/>
<path d="M13.8839 7.50502C13.9519 7.50502 14.007 7.4499 14.007 7.3819C14.007 7.31391 13.9519 7.25879 13.8839 7.25879C13.8159 7.25879 13.7608 7.31391 13.7608 7.3819C13.7608 7.4499 13.8159 7.50502 13.8839 7.50502Z" fill="white"/>
<path d="M11.7493 11.0866C11.8173 11.0866 11.8724 11.0314 11.8724 10.9634C11.8724 10.8955 11.8173 10.8403 11.7493 10.8403C11.6813 10.8403 11.6262 10.8955 11.6262 10.9634C11.6262 11.0314 11.6813 11.0866 11.7493 11.0866Z" fill="white"/>
<path d="M16.6893 4.67738C16.7573 4.67738 16.8124 4.62226 16.8124 4.55427C16.8124 4.48627 16.7573 4.43115 16.6893 4.43115C16.6213 4.43115 16.5662 4.48627 16.5662 4.55427C16.5662 4.62226 16.6213 4.67738 16.6893 4.67738Z" fill="white"/>
<path d="M17.5007 8.22816C17.5687 8.22816 17.6238 8.17304 17.6238 8.10505C17.6238 8.03705 17.5687 7.98193 17.5007 7.98193C17.4327 7.98193 17.3776 8.03705 17.3776 8.10505C17.3776 8.17304 17.4327 8.22816 17.5007 8.22816Z" fill="white"/>
<path d="M16.2209 7.53481C16.2889 7.53481 16.344 7.47968 16.344 7.41169C16.344 7.34369 16.2889 7.28857 16.2209 7.28857C16.1529 7.28857 16.0978 7.34369 16.0978 7.41169C16.0978 7.47968 16.1529 7.53481 16.2209 7.53481Z" fill="white"/>
<path d="M14.0289 8.47768C14.0969 8.47768 14.1521 8.42255 14.1521 8.35456C14.1521 8.28657 14.0969 8.23145 14.0289 8.23145C13.9609 8.23145 13.9058 8.28657 13.9058 8.35456C13.9058 8.42255 13.9609 8.47768 14.0289 8.47768Z" fill="white"/>
<path d="M23.6955 28.6876C23.7635 28.6876 23.8186 28.6325 23.8186 28.5645C23.8186 28.4965 23.7635 28.4414 23.6955 28.4414C23.6275 28.4414 23.5724 28.4965 23.5724 28.5645C23.5724 28.6325 23.6275 28.6876 23.6955 28.6876Z" fill="white"/>
<path d="M7.34345 25.6659C7.41165 25.6659 7.46693 25.6106 7.46693 25.5424C7.46693 25.4742 7.41165 25.4189 7.34345 25.4189C7.27525 25.4189 7.21997 25.4742 7.21997 25.5424C7.21997 25.6106 7.27525 25.6659 7.34345 25.6659Z" fill="white"/>
<path d="M15.914 27.2548C15.9822 27.2548 16.0375 27.1995 16.0375 27.1313C16.0375 27.0631 15.9822 27.0078 15.914 27.0078C15.8458 27.0078 15.7905 27.0631 15.7905 27.1313C15.7905 27.1995 15.8458 27.2548 15.914 27.2548Z" fill="white"/>
<path d="M9.89417 25.5673C9.96237 25.5673 10.0177 25.512 10.0177 25.4438C10.0177 25.3756 9.96237 25.3203 9.89417 25.3203C9.82597 25.3203 9.77069 25.3756 9.77069 25.4438C9.77069 25.512 9.82597 25.5673 9.89417 25.5673Z" fill="white"/>
<path d="M10.9602 27.307C11.0284 27.307 11.0837 27.2517 11.0837 27.1835C11.0837 27.1153 11.0284 27.0601 10.9602 27.0601C10.892 27.0601 10.8367 27.1153 10.8367 27.1835C10.8367 27.2517 10.892 27.307 10.9602 27.307Z" fill="white"/>
<path d="M18.8074 26.2111C18.8754 26.2111 18.9306 26.156 18.9306 26.088C18.9306 26.02 18.8754 25.9648 18.8074 25.9648C18.7394 25.9648 18.6843 26.02 18.6843 26.088C18.6843 26.156 18.7394 26.2111 18.8074 26.2111Z" fill="white"/>
<path d="M23.1336 23.7697C23.2016 23.7697 23.2567 23.7145 23.2567 23.6466C23.2567 23.5786 23.2016 23.5234 23.1336 23.5234C23.0656 23.5234 23.0105 23.5786 23.0105 23.6466C23.0105 23.7145 23.0656 23.7697 23.1336 23.7697Z" fill="white"/>
<path d="M26.4136 25.2682C26.4816 25.2682 26.5367 25.2131 26.5367 25.1451C26.5367 25.0771 26.4816 25.022 26.4136 25.022C26.3456 25.022 26.2905 25.0771 26.2905 25.1451C26.2905 25.2131 26.3456 25.2682 26.4136 25.2682Z" fill="white"/>
<path d="M27.5314 25.9835C27.5994 25.9835 27.6546 25.9284 27.6546 25.8604C27.6546 25.7924 27.5994 25.7373 27.5314 25.7373C27.4634 25.7373 27.4083 25.7924 27.4083 25.8604C27.4083 25.9284 27.4634 25.9835 27.5314 25.9835Z" fill="white"/>
<path d="M27.7152 24.0324C27.7832 24.0324 27.8383 23.9772 27.8383 23.9092C27.8383 23.8413 27.7832 23.7861 27.7152 23.7861C27.6472 23.7861 27.5921 23.8413 27.5921 23.9092C27.5921 23.9772 27.6472 24.0324 27.7152 24.0324Z" fill="white"/>
<path d="M11.4066 21.2706C11.4746 21.2706 11.5297 21.2155 11.5297 21.1475C11.5297 21.0795 11.4746 21.0244 11.4066 21.0244C11.3386 21.0244 11.2835 21.0795 11.2835 21.1475C11.2835 21.2155 11.3386 21.2706 11.4066 21.2706Z" fill="white"/>
<path d="M11.4534 24.1393C11.5442 24.1393 11.6178 24.0657 11.6178 23.9749C11.6178 23.8842 11.5442 23.8105 11.4534 23.8105C11.3626 23.8105 11.289 23.8842 11.289 23.9749C11.289 24.0657 11.3626 24.1393 11.4534 24.1393Z" fill="white"/>
<path d="M12.4398 26.2219C12.5306 26.2219 12.6042 26.1483 12.6042 26.0575C12.6042 25.9667 12.5306 25.8931 12.4398 25.8931C12.349 25.8931 12.2754 25.9667 12.2754 26.0575C12.2754 26.1483 12.349 26.2219 12.4398 26.2219Z" fill="white"/>
<path d="M24.2545 24.0519C24.3453 24.0519 24.4189 23.9783 24.4189 23.8875C24.4189 23.7967 24.3453 23.7231 24.2545 23.7231C24.1637 23.7231 24.0901 23.7967 24.0901 23.8875C24.0901 23.9783 24.1637 24.0519 24.2545 24.0519Z" fill="white"/>
<path d="M28.5069 23.8107C28.5977 23.8107 28.6713 23.7371 28.6713 23.6463C28.6713 23.5555 28.5977 23.4819 28.5069 23.4819C28.4161 23.4819 28.3425 23.5555 28.3425 23.6463C28.3425 23.7371 28.4161 23.8107 28.5069 23.8107Z" fill="white"/>
<path d="M26.4026 22.9118C26.4934 22.9118 26.567 22.8382 26.567 22.7474C26.567 22.6566 26.4934 22.583 26.4026 22.583C26.3118 22.583 26.2382 22.6566 26.2382 22.7474C26.2382 22.8382 26.3118 22.9118 26.4026 22.9118Z" fill="white"/>
<path d="M24.2545 22.9997C24.3453 22.9997 24.4189 22.9261 24.4189 22.8353C24.4189 22.7445 24.3453 22.6709 24.2545 22.6709C24.1637 22.6709 24.0901 22.7445 24.0901 22.8353C24.0901 22.9261 24.1637 22.9997 24.2545 22.9997Z" fill="white"/>
<path d="M19.8234 6.06234L20.2322 6.02325L19.8241 6.00024C19.8113 5.92133 19.7481 5.85959 19.6685 5.84936L19.6294 5.44238L19.606 5.85265C19.5322 5.86909 19.4756 5.93083 19.4665 6.00754L19.0485 6.04554L19.4694 6.06819C19.4847 6.1387 19.5417 6.19386 19.6133 6.20701L19.6513 6.62641L19.6736 6.20774C19.7492 6.19496 19.8091 6.13687 19.8234 6.06234Z" fill="white"/>
<path d="M12.9238 10.6136L13.3326 10.5745L12.9246 10.5515C12.9122 10.4726 12.8486 10.4109 12.7689 10.4006L12.7299 9.99365L12.7068 10.4039C12.6327 10.4204 12.5761 10.4821 12.5669 10.5588L12.149 10.5968L12.5698 10.6195C12.5852 10.69 12.6422 10.7451 12.7138 10.7583L12.7518 11.1777L12.7744 10.759C12.8501 10.7466 12.91 10.6881 12.9238 10.6136Z" fill="white"/>
<path d="M28.2074 22.6468L28.6162 22.6077L28.2081 22.5847C28.1957 22.5058 28.1321 22.4441 28.0525 22.4338L28.0134 22.0269L27.9904 22.4371C27.9166 22.4536 27.8599 22.5153 27.8508 22.592L27.4329 22.63L27.8537 22.6527C27.8691 22.7232 27.9261 22.7783 27.9977 22.7915L28.0357 23.2109L28.0583 22.7922C28.1332 22.7798 28.1931 22.7217 28.2074 22.6468Z" fill="white"/>
<path d="M11.5429 28.9384L11.9517 28.8994L11.5437 28.8763C11.5309 28.7974 11.4677 28.7357 11.388 28.7255L11.3489 28.3188L11.3259 28.7287C11.2518 28.7452 11.1951 28.8069 11.186 28.8836L10.7681 28.9216L11.1889 28.9443C11.2043 29.0148 11.2613 29.0703 11.3329 29.0831L11.3709 29.5025L11.3935 29.0838C11.4688 29.0714 11.529 29.013 11.5429 28.9384Z" fill="white"/>
<path d="M26.9086 25.8695L27.3174 25.8304L26.9093 25.8074C26.8969 25.7285 26.8333 25.6667 26.7537 25.6565L26.7146 25.2495L26.6916 25.6594C26.6178 25.6758 26.5612 25.7376 26.552 25.8143L26.1341 25.8523L26.555 25.875C26.5703 25.9455 26.6273 26.0006 26.6989 26.0138L26.7369 26.4332L26.7595 26.0145C26.8344 26.0025 26.8947 25.944 26.9086 25.8695Z" fill="white"/>
<path d="M20.1369 14.5002C18.4319 15.1629 16.7689 15.7544 15.3657 16.1935C12.5143 17.0863 4.71273 19.5033 0 22.5502L0.394554 22.7036C3.26603 21.0816 5.13249 20.5719 6.92661 20.0075C8.87746 19.3937 15.1841 17.9178 18.0399 17.1141C19.0047 16.8427 20.1347 16.4872 21.3315 16.0547C21.0531 15.6663 20.7594 15.2769 20.4503 14.8882C20.3469 14.757 20.2421 14.6277 20.1369 14.5002ZM22.22 17.3713C21.8071 17.65 21.4612 17.8725 21.219 18.0128C19.8161 18.8238 12.9768 23.4927 11.4209 24.5668C9.86494 25.6409 5.5464 29.7179 4.27506 30.9016L4.23122 31.3834C8.3302 27.7009 9.61615 26.7927 11.2455 25.5532C13.2621 24.0188 17.4338 21.1802 18.8516 20.2705C20.207 19.4011 21.4294 18.6014 22.5265 17.8696C22.5086 17.8396 22.4907 17.8097 22.4728 17.7794C22.3902 17.6438 22.3058 17.5079 22.22 17.3713ZM28.6274 10.604C26.6306 11.7745 23.4833 13.1872 20.4298 14.3858C20.5029 14.4753 20.5756 14.5656 20.6479 14.6565C20.9892 15.0862 21.311 15.5187 21.6139 15.9516C24.0141 15.0675 26.6477 13.881 28.7374 12.4448C27.7419 13.3881 24.4506 15.8479 22.4439 17.219C22.5473 17.3874 22.6474 17.5558 22.7442 17.7235C25.7845 15.689 27.8303 14.1915 29.0224 13.1901C30.6663 11.8092 34.4146 8.7185 35.8394 4.57568C33.3402 7.7544 30.3854 9.57337 28.6274 10.604Z" fill="#E54D2F"/>
<path d="M14.7724 21.6441C14.449 21.2371 14.0019 20.692 13.6661 20.2694C13.2172 19.7042 12.8018 19.1332 12.4211 18.5629C12.2969 18.594 12.1731 18.625 12.0492 18.6561C12.5088 19.3732 13.0192 20.0893 13.5752 20.7892C13.9814 21.3007 14.3508 21.7124 14.54 21.9685C14.5784 22.0204 14.6544 22.1351 14.757 22.2878C14.8754 22.2074 14.9948 22.1263 15.1154 22.0445C14.9989 21.9177 14.8838 21.7844 14.7724 21.6441ZM17.1324 23.7864C16.8668 23.535 16.2227 23.1153 15.5523 22.4854C15.4044 22.587 15.255 22.69 15.1052 22.7938C15.5381 23.4039 16.1277 24.1532 16.5895 24.3716C17.2851 24.7012 17.4725 24.1086 17.1324 23.7864ZM20.6479 14.6568C16.8149 9.83231 12.1325 7.18185 10.1137 8.78601C8.54572 10.0318 9.18942 13.6726 11.3507 17.4973C11.4625 17.4589 11.5732 17.4213 11.6828 17.384C9.50141 13.6577 8.90447 10.1947 10.3833 9.01945C12.2417 7.5428 16.7291 10.2035 20.451 14.8881C21.2215 15.8577 21.8988 16.8309 22.4724 17.7797C24.6687 21.4147 25.3427 24.7019 23.8252 26.0437C23.3608 26.4544 21.9419 26.6155 20.0831 25.7789C20.0572 25.8114 20.0988 25.8994 20.1313 25.921C21.7359 26.5662 23.2728 26.812 24.0488 26.1957C25.9134 24.7139 24.4809 19.4813 20.6479 14.6568Z" fill="white"/>
<path d="M4.20892 15.229H6.66393L8.72437 18.7252C8.72437 18.7252 8.72437 16.1935 8.72437 15.9962C8.72437 15.6893 8.3353 15.2893 8.1983 15.229C8.3627 15.229 9.79844 15.229 9.89708 15.229C9.79296 15.2564 9.45868 15.6619 9.45868 15.9962C9.45868 16.1606 9.45868 19.8321 9.45868 20.0075C9.45868 20.2541 9.81488 20.5938 9.98475 20.7254H7.61743L5.5241 17.2127C5.5241 17.2127 5.5241 19.8321 5.5241 19.9746C5.5241 20.2486 5.79262 20.5116 6.07209 20.7363H4.26372C4.52128 20.6267 4.76787 20.2815 4.78979 20.0075C4.81171 19.7335 4.78979 16.1989 4.78979 16.0455C4.78979 15.7112 4.46648 15.4372 4.20892 15.229Z" fill="white"/>
<path d="M26.6657 20.7254H29.9317C29.7508 20.6815 29.5481 20.4678 29.4385 20.1828C29.3289 19.8979 27.5972 15.229 27.5972 15.229H26.3555C26.0033 15.4825 25.6259 15.75 25.223 16.0316C25.2219 16.0419 25.2208 16.0521 25.219 16.062C25.1649 16.3907 24.1931 19.9103 24.1339 20.0842C24.0517 20.3253 23.6298 20.5938 23.4599 20.7363H25.219C25.0436 20.539 24.9011 20.3472 24.934 20.128C24.9669 19.9089 25.0655 19.4705 25.0655 19.4705H26.8848C26.967 19.6897 27.0284 19.8866 27.0602 20.0732C27.0986 20.2979 26.8684 20.55 26.6657 20.7254ZM25.2299 18.769L25.8437 16.7634L26.6547 18.769H25.2299ZM24.9534 15.4292C25.0436 15.3627 25.1342 15.2959 25.2244 15.229H24.7477C24.7952 15.2728 24.8737 15.3419 24.9534 15.4292Z" fill="white"/>
<path d="M12.4617 20.128C12.4946 19.9089 12.5932 19.4705 12.5932 19.4705H14.4126C14.4948 19.6897 14.5561 19.8866 14.5879 20.0732C14.6263 20.2979 14.3961 20.55 14.1934 20.7254H17.0689C17.1288 20.6852 17.1883 20.645 17.2479 20.6052C17.1364 20.5065 17.0338 20.3586 16.9662 20.1828C16.8566 19.8979 15.1249 15.229 15.1249 15.229H12.2754C12.4124 15.355 12.8069 15.6948 12.7467 16.062C12.693 16.3907 11.7208 19.9103 11.6616 20.0842C11.5794 20.3253 11.1575 20.5938 10.9876 20.7363H12.7467C12.5713 20.539 12.4288 20.3472 12.4617 20.128ZM13.3714 16.7634L14.1824 18.769H12.7576L13.3714 16.7634Z" fill="white"/>
<path d="M22.3946 17.9572C21.8583 18.3145 21.2924 18.6875 20.6962 19.0769C20.9636 19.2066 21.1766 19.3696 21.197 19.58C21.235 19.9753 20.4408 20.1663 19.7229 20.0841C19.5793 20.0677 19.4383 20.0301 19.3039 19.9797C19.1548 20.0757 19.0043 20.1726 18.8516 20.2705C18.6963 20.3702 18.5078 20.4929 18.2927 20.6347V21.202C18.4351 20.9226 18.7468 20.6723 18.9886 20.6595C19.0927 20.6541 19.4544 20.9883 20.9449 20.9061C21.6683 20.8663 23.0657 20.0951 23.0437 19.2074C23.0306 18.6827 22.7566 18.2736 22.3946 17.9572ZM18.2923 19.3279V19.9059C18.4242 19.8178 18.5542 19.7312 18.6817 19.6468C18.4812 19.5073 18.3391 19.3769 18.2923 19.3279ZM21.8849 17.5944C21.7461 17.5122 21.6055 17.4403 21.4706 17.3767C20.7692 17.0479 20.0349 16.9876 19.8815 16.5438C19.7733 16.2307 20.0787 15.941 20.824 15.9519C21.5693 15.9629 22.2598 16.4068 22.4461 16.5657V15.1519C22.3913 15.2067 22.1509 15.4825 21.931 15.4368C21.509 15.3491 20.7911 15.2348 19.9691 15.2395C19.0266 15.245 18.2156 15.9735 18.1882 16.8945C18.1498 18.1822 19.18 18.533 19.7609 18.7357C19.8208 18.7565 19.8891 18.7788 19.9633 18.8026C20.5204 18.4402 20.961 18.1611 21.2189 18.0124C21.3921 17.9126 21.619 17.7694 21.8849 17.5944Z" fill="white"/>
</svg>
