<svg width="90" height="90" viewBox="0 0 90 90" fill="none" xmlns="http://www.w3.org/2000/svg">
<circle cx="45" cy="45" r="45" fill="#F0F0F5"/>
<path d="M26 66.0562L28.8861 37.7998H34.6582L36.5823 54.3189L45.2405 48.6677V54.3189L55.3418 48.6677V54.3189L64 48.6677V66.0562H26Z" fill="#0B3D91"/>
<rect x="23" y="39.7998" width="17" height="3" fill="#F0F0F5"/>
<rect x="23" y="46.7998" width="17" height="3" fill="#F0F0F5"/>
<path d="M26 66.0562L28.8861 37.7998H34.6582L36.5823 54.3189L45.2405 48.6677V54.3189L55.3418 48.6677V54.3189L64 48.6677V66.0562H26Z" stroke="#0B3D91" stroke-width="3" stroke-linecap="round" stroke-linejoin="round"/>
<rect x="42" y="58.7998" width="7" height="3" rx="1" fill="#F0F0F5"/>
<rect x="53" y="58.7998" width="7" height="3" rx="1" fill="#F0F0F5"/>
<path fill-rule="evenodd" clip-rule="evenodd" d="M40.2002 21.8999C41.5809 21.8999 42.7002 20.7806 42.7002 19.3999C42.7002 18.0192 41.5809 16.8999 40.2002 16.8999C38.8195 16.8999 37.7002 18.0192 37.7002 19.3999C37.7002 20.7806 38.8195 21.8999 40.2002 21.8999ZM35 34.2999C37.7614 34.2999 40 32.0613 40 29.2999C40 26.5385 37.7614 24.2999 35 24.2999C32.2386 24.2999 30 26.5385 30 29.2999C30 32.0613 32.2386 34.2999 35 34.2999ZM49 25.9999C49 27.6568 47.6569 28.9999 46 28.9999C44.3431 28.9999 43 27.6568 43 25.9999C43 24.3431 44.3431 22.9999 46 22.9999C47.6569 22.9999 49 24.3431 49 25.9999ZM50.5 20.9999C51.3284 20.9999 52 20.3283 52 19.4999C52 18.6715 51.3284 17.9999 50.5 17.9999C49.6716 17.9999 49 18.6715 49 19.4999C49 20.3283 49.6716 20.9999 50.5 20.9999ZM53 29.4999C53 30.3283 52.3284 30.9999 51.5 30.9999C50.6716 30.9999 50 30.3283 50 29.4999C50 28.6715 50.6716 27.9999 51.5 27.9999C52.3284 27.9999 53 28.6715 53 29.4999ZM56 26.9999C57.6569 26.9999 59 25.6568 59 23.9999C59 22.3431 57.6569 20.9999 56 20.9999C54.3431 20.9999 53 22.3431 53 23.9999C53 25.6568 54.3431 26.9999 56 26.9999Z" fill="#FC3D21"/>
</svg>
