<svg width="90" height="90" viewBox="0 0 90 90" fill="none" xmlns="http://www.w3.org/2000/svg">
<circle cx="45" cy="45" r="45" fill="#F0F0F5"/>
<path fill-rule="evenodd" clip-rule="evenodd" d="M63 45C63 54.9411 54.9411 63 45 63C35.0589 63 27 54.9411 27 45C27 35.0589 35.0589 27 45 27C54.9411 27 63 35.0589 63 45ZM53.7958 31.6957H48.4041C47.4679 31.6957 46.657 32.3451 46.4524 33.2587L45.4205 37.8673C45.1857 38.916 45.8216 39.9628 46.8605 40.2377L51.0069 41.3351C51.4906 41.4631 51.9087 41.7678 52.1788 42.189L54.7396 46.1829C54.8545 46.3621 54.9973 46.5218 55.1625 46.656L56.6088 47.8304C57.9159 48.8919 59.8696 47.9617 59.8696 46.2779V40.3117C59.8696 39.9414 59.7668 39.5784 59.5726 39.2631L55.4988 32.647C55.1348 32.0558 54.4901 31.6957 53.7958 31.6957ZM30.7894 41.8696H37.3569C37.8067 41.8696 38.2434 42.0212 38.5964 42.3L43.2161 45.9484C43.8268 46.4307 44.1023 47.2234 43.9224 47.9804L43.2116 50.9711C43.1708 51.1424 43.1076 51.3077 43.0236 51.4625L41.3291 54.5854C41.1702 54.8782 41.087 55.2061 41.087 55.5393V57.4273C41.087 59.0767 39.2026 60.0171 37.8846 59.0255L30.4335 53.4197C29.9906 53.0864 29.7058 52.5843 29.6471 52.0332L28.8007 44.0813C28.6749 42.8996 29.6011 41.8696 30.7894 41.8696Z" fill="#0B3D91"/>
<circle cx="45" cy="45" r="16" stroke="#0B3D91" stroke-width="4"/>
<circle cx="45" cy="18" r="3" fill="#FC3D21"/>
<circle cx="58" cy="22" r="1" fill="#FC3D21"/>
<circle cx="69" cy="32" r="2" fill="#FC3D21"/>
<circle cx="72" cy="45" r="3" fill="#FC3D21"/>
<circle cx="68" cy="59" r="4" fill="#FC3D21"/>
<circle cx="58" cy="68" r="2" fill="#FC3D21"/>
<circle cx="45" cy="72" r="1" fill="#FC3D21"/>
<circle cx="31" cy="69" r="3" fill="#FC3D21"/>
<circle cx="21" cy="58" r="4" fill="#FC3D21"/>
<circle cx="18" cy="45" r="1" fill="#FC3D21"/>
<circle cx="21" cy="31" r="2" fill="#FC3D21"/>
<circle cx="32" cy="22" r="4" fill="#FC3D21"/>
</svg>
