<svg width="90" height="90" viewBox="0 0 90 90" fill="none" xmlns="http://www.w3.org/2000/svg">
<circle cx="45" cy="45" r="45" fill="#F0F0F5"/>
<path d="M24 64H52.5331C52.9389 64 53.1739 63.5438 52.9312 63.2187C49.8157 59.0454 43.3799 52 38.5 52C33.6244 52 26.9025 59.0331 23.61 63.2077C23.3549 63.5312 23.588 64 24 64Z" fill="#0B3D91"/>
<path d="M42 64H65.4498C65.8556 64 66.0914 63.5458 65.8473 63.2217C63.2169 59.7301 57.9341 54 53.9167 54C49.9033 54 44.3888 59.7186 41.6102 63.2112C41.3537 63.5336 41.588 64 42 64Z" fill="#0B3D91"/>
<path d="M24 65.5H52.5331C54.137 65.5 55.1362 63.6648 54.1332 62.3213C52.533 60.1779 50.0751 57.2876 47.3652 54.9157C46.0098 53.7293 44.5583 52.6434 43.0905 51.8475C41.6357 51.0586 40.0653 50.5 38.5 50.5C36.9394 50.5 35.355 51.0556 33.8771 51.8388C32.3845 52.6298 30.8943 53.71 29.4938 54.8921C26.6934 57.2557 24.1206 60.1381 22.4323 62.2788L23.61 63.2077L22.4323 62.2788C21.3802 63.6128 22.3691 65.5 24 65.5Z" stroke="#F0F0F5" stroke-width="3"/>
<path d="M62.5 51.5L65 53.5L67.5 51.5" stroke="#0B3D91" stroke-width="3" stroke-linecap="round" stroke-linejoin="round"/>
<path d="M26 48L28.5 50L31 48" stroke="#0B3D91" stroke-width="3" stroke-linecap="round" stroke-linejoin="round"/>
<circle cx="40.0526" cy="38.5491" r="5.08287" transform="rotate(4.31596 40.0526 38.5491)" fill="#FC3D21"/>
<circle cx="47.2041" cy="32.2046" r="2" fill="#FC3D21"/>
<circle cx="53.6887" cy="38.6369" r="3.95334" fill="#FC3D21"/>
<circle cx="59.8238" cy="30.8238" r="2.82381" fill="#FC3D21"/>
<circle cx="52.5" cy="26.5" r="1.5" fill="#FC3D21"/>
<circle cx="44.6526" cy="23.9533" r="3.95334" fill="#FC3D21"/>
<circle cx="36.746" cy="28.4716" r="1.69429" fill="#FC3D21"/>
</svg>
